
      <svg data-logo="logo" xmlns="http://www.w3.org/2000/svg" viewBox="0 0 144.48999786376953 41">
        <g id="logogram" transform="
    translate(0, 0.5)
    rotate(0 27 20)
    
  "><path d="M26 0H38V12H26V0Z" fill="#8B5CF6"/><path d="M38 12H54V28H38V12Z" fill="#8B5CF6"/><path d="M26 28H38V40H26V28Z" fill="#8B5CF6"/><path d="M16 12H26V22H16V12Z" fill="#8B5CF6"/><path d="M8 22H16V30H8V22Z" fill="#8B5CF6"/><path d="M6 2H16V12H6V2Z" fill="#8B5CF6"/><path d="M0 12H6V18H0V12Z" fill="#8B5CF6"/></g>
        <g id="logotype" transform="translate(60, 10.331)"><path fill="#ffffff" d="M14.11 20.34L14.11 20.34Q12.60 20.34 11.22 19.86Q9.84 19.39 8.79 18.50Q7.75 17.61 7.30 16.36L7.30 16.36L10.28 15.27Q10.46 15.79 11.02 16.22Q11.58 16.65 12.38 16.91Q13.19 17.17 14.11 17.17L14.11 17.17Q15.06 17.17 15.89 16.87Q16.71 16.58 17.22 16.05Q17.73 15.53 17.73 14.83L17.73 14.83Q17.73 14.11 17.19 13.65Q16.66 13.19 15.83 12.91Q15.00 12.64 14.11 12.50L14.11 12.50Q12.18 12.20 10.64 11.58Q9.11 10.95 8.22 9.85Q7.33 8.74 7.33 6.99L7.33 6.99Q7.33 5.34 8.28 4.10Q9.22 2.87 10.77 2.18Q12.32 1.49 14.11 1.49L14.11 1.49Q15.61 1.49 17.00 1.96Q18.39 2.42 19.44 3.32Q20.48 4.22 20.94 5.48L20.94 5.48L17.95 6.56Q17.77 6.04 17.21 5.61Q16.65 5.18 15.84 4.93Q15.04 4.67 14.11 4.67L14.11 4.67Q13.19 4.66 12.36 4.97Q11.54 5.27 11.02 5.79Q10.50 6.31 10.50 6.99L10.50 6.99Q10.50 7.86 10.99 8.30Q11.47 8.74 12.29 8.94Q13.11 9.14 14.11 9.31L14.11 9.31Q15.93 9.60 17.48 10.28Q19.03 10.95 19.96 12.08Q20.90 13.20 20.90 14.83L20.90 14.83Q20.90 16.48 19.96 17.72Q19.03 18.96 17.48 19.65Q15.93 20.34 14.11 20.34ZM30.47 7.00L30.47 10.17L27.94 10.17L27.94 20L24.77 20L24.77 10.17L22.85 10.17L22.85 7.00L24.77 7.00L24.77 2.92L27.94 2.92L27.94 7.00L30.47 7.00ZM42.47 8.66L42.32 7.00L45.49 7.00L45.49 20L42.32 20L42.18 18.39Q41.65 19.26 40.77 19.80Q39.89 20.34 38.70 20.34L38.70 20.34Q37.25 20.34 35.99 19.79Q34.73 19.25 33.77 18.28Q32.82 17.32 32.28 16.06Q31.74 14.80 31.74 13.36L31.74 13.36Q31.74 11.97 32.25 10.74Q32.77 9.52 33.69 8.60Q34.61 7.68 35.82 7.16Q37.03 6.64 38.42 6.64L38.42 6.64Q39.71 6.64 40.73 7.21Q41.75 7.78 42.47 8.66L42.47 8.66ZM38.62 17.28L38.62 17.28Q39.63 17.28 40.41 16.78Q41.19 16.27 41.63 15.40Q42.08 14.54 42.08 13.50L42.08 13.50Q42.08 12.45 41.63 11.58Q41.19 10.72 40.40 10.21Q39.62 9.70 38.62 9.70L38.62 9.70Q37.62 9.70 36.79 10.22Q35.97 10.73 35.48 11.59Q34.99 12.45 34.99 13.50L34.99 13.50Q34.99 14.55 35.48 15.41Q35.98 16.27 36.80 16.78Q37.63 17.28 38.62 17.28ZM55.89 16.09L55.89 16.09L58.75 17.63Q57.86 18.86 56.51 19.60Q55.15 20.34 53.55 20.34L53.55 20.34Q51.76 20.34 50.28 19.41Q48.81 18.49 47.93 16.94Q47.05 15.38 47.05 13.50L47.05 13.50Q47.05 12.07 47.56 10.83Q48.07 9.59 48.96 8.64Q49.85 7.70 51.03 7.17Q52.22 6.64 53.55 6.64L53.55 6.64Q55.15 6.64 56.51 7.38Q57.86 8.12 58.75 9.37L58.75 9.37L55.89 10.90Q55.44 10.38 54.82 10.09Q54.20 9.81 53.55 9.81L53.55 9.81Q52.62 9.81 51.86 10.32Q51.11 10.83 50.67 11.67Q50.23 12.51 50.23 13.50L50.23 13.50Q50.23 14.47 50.67 15.31Q51.11 16.15 51.86 16.66Q52.62 17.17 53.55 17.17L53.55 17.17Q54.23 17.17 54.84 16.87Q55.45 16.58 55.89 16.09ZM67.85 12.32L72.30 20L68.65 20L65.68 14.89L63.86 17.06L63.86 20L60.69 20L60.69 0.50L63.86 0.50L63.86 12.13L68.17 7.00L72.31 7.00L67.85 12.32ZM77.79 20L74.61 20L74.60 7.00L77.77 7.00L77.79 8.16Q78.45 7.45 79.37 7.05Q80.30 6.64 81.36 6.64L81.36 6.64Q82.08 6.64 82.79 6.84L82.79 6.84L81.54 10.04Q81.05 9.85 80.56 9.85L80.56 9.85Q79.79 9.85 79.16 10.22Q78.53 10.59 78.16 11.22Q77.79 11.85 77.79 12.62L77.79 12.62L77.79 20Z"/></g>
        
      </svg>
    